<svg width="0" height="0" class="hidden">
  <symbol version="1.1" id="linkedin-svgrepo-com" xmlns="http://www.w3.org/2000/svg" xmlns:xlink="http://www.w3.org/1999/xlink" x="0px" y="0px" xml:space="preserve" viewBox="0 0 504.4 504.4">
    <g>
      <g>
        <path d="M377.6,0.2H126.4C56.8,0.2,0,57,0,126.6v251.6c0,69.2,56.8,126,126.4,126H378c69.6,0,126.4-56.8,126.4-126.4V126.6
			C504,57,447.2,0.2,377.6,0.2z M168,408.2H96v-208h72V408.2z M131.6,168.2c-20.4,0-36.8-16.4-36.8-36.8c0-20.4,16.4-36.8,36.8-36.8
			c20.4,0,36.8,16.4,36.8,36.8C168,151.8,151.6,168.2,131.6,168.2z M408.4,408.2H408h-60V307.4c0-24.4-3.2-55.6-36.4-55.6
			c-34,0-39.6,26.4-39.6,54v102.4h-60v-208h56v28h1.6c8.8-16,29.2-28.4,61.2-28.4c66,0,77.6,38,77.6,94.4V408.2z"></path>
      </g>
    </g>
    <g></g>
    <g></g>
    <g></g>
    <g></g>
    <g></g>
    <g></g>
    <g></g>
    <g></g>
    <g></g>
    <g></g>
    <g></g>
    <g></g>
    <g></g>
    <g></g>
    <g></g>
  </symbol>
  <symbol xmlns="http://www.w3.org/2000/svg" viewBox="0 0 24 24" id="github-svgrepo-com">
    <path fill-rule="evenodd" clip-rule="evenodd" d="M12.026 2c-5.509 0-9.974 4.465-9.974 9.974 0 4.406 2.857 8.145 6.821 9.465.499.09.679-.217.679-.481 0-.237-.008-.865-.011-1.696-2.775.602-3.361-1.338-3.361-1.338-.452-1.152-1.107-1.459-1.107-1.459-.905-.619.069-.605.069-.605 1.002.07 1.527 1.028 1.527 1.028.89 1.524 2.336 1.084 2.902.829.091-.645.351-1.085.635-1.334-2.214-.251-4.542-1.107-4.542-4.93 0-1.087.389-1.979 1.024-2.675-.101-.253-.446-1.268.099-2.64 0 0 .837-.269 2.742 1.021a9.582 9.582 0 0 1 2.496-.336 9.554 9.554 0 0 1 2.496.336c1.906-1.291 2.742-1.021 2.742-1.021.545 1.372.203 2.387.099 2.64.64.696 1.024 1.587 1.024 2.675 0 3.833-2.33 4.675-4.552 4.922.355.308.675.916.675 1.846 0 1.334-.012 2.41-.012 2.737 0 .267.178.577.687.479C19.146 20.115 22 16.379 22 11.974 22 6.465 17.535 2 12.026 2z"></path>
  </symbol>
</svg>